<mxfile host="app.diagrams.net" modified="2023-08-26T14:35:03.874Z" agent="Mozilla/5.0 (Macintosh; Intel Mac OS X 10_15_7) AppleWebKit/537.36 (KHTML, like Gecko) Chrome/116.0.0.0 Safari/537.36" etag="osbNfy_L2HgMmJODbvmu" version="21.6.9" type="google">
  <diagram name="Page-1" id="j8gyJ469gVMiIQmluv2O">
    <mxGraphModel grid="1" page="1" gridSize="10" guides="1" tooltips="1" connect="1" arrows="1" fold="1" pageScale="1" pageWidth="850" pageHeight="1100" math="0" shadow="0">
      <root>
        <mxCell id="0" />
        <mxCell id="1" parent="0" />
        <mxCell id="orA6Bw7jzsO3zKe3uAtD-39" value="DynamoDB transaction" style="fillColor=none;strokeColor=#5A6C86;dashed=1;verticalAlign=top;fontStyle=0;fontColor=#5A6C86;whiteSpace=wrap;html=1;align=right;spacingLeft=8;spacingRight=6;fontSize=13;" vertex="1" parent="1">
          <mxGeometry x="390" y="206" width="292" height="274" as="geometry" />
        </mxCell>
        <mxCell id="orA6Bw7jzsO3zKe3uAtD-36" style="edgeStyle=orthogonalEdgeStyle;rounded=0;orthogonalLoop=1;jettySize=auto;html=1;fontSize=13;" edge="1" parent="1" source="orA6Bw7jzsO3zKe3uAtD-28" target="orA6Bw7jzsO3zKe3uAtD-1">
          <mxGeometry relative="1" as="geometry" />
        </mxCell>
        <mxCell id="orA6Bw7jzsO3zKe3uAtD-29" style="edgeStyle=orthogonalEdgeStyle;rounded=0;orthogonalLoop=1;jettySize=auto;html=1;fontSize=13;" edge="1" parent="1" source="orA6Bw7jzsO3zKe3uAtD-28" target="orA6Bw7jzsO3zKe3uAtD-12">
          <mxGeometry relative="1" as="geometry" />
        </mxCell>
        <mxCell id="orA6Bw7jzsO3zKe3uAtD-30" value="1. Receive new message" style="edgeLabel;html=1;align=center;verticalAlign=middle;resizable=0;points=[];fontSize=13;" connectable="0" vertex="1" parent="orA6Bw7jzsO3zKe3uAtD-29">
          <mxGeometry x="-0.2404" y="1" relative="1" as="geometry">
            <mxPoint x="1" as="offset" />
          </mxGeometry>
        </mxCell>
        <mxCell id="orA6Bw7jzsO3zKe3uAtD-34" style="edgeStyle=orthogonalEdgeStyle;rounded=0;orthogonalLoop=1;jettySize=auto;html=1;entryX=0.5;entryY=1;entryDx=0;entryDy=0;entryPerimeter=0;fontSize=13;" edge="1" parent="1" source="orA6Bw7jzsO3zKe3uAtD-28" target="orA6Bw7jzsO3zKe3uAtD-28">
          <mxGeometry relative="1" as="geometry">
            <Array as="points">
              <mxPoint x="540" y="260" />
              <mxPoint x="540" y="310" />
              <mxPoint x="449" y="310" />
            </Array>
          </mxGeometry>
        </mxCell>
        <mxCell id="orA6Bw7jzsO3zKe3uAtD-35" value="3. Execute&lt;br style=&quot;font-size: 13px;&quot;&gt;domain logic" style="edgeLabel;html=1;align=center;verticalAlign=middle;resizable=0;points=[];fontSize=13;" connectable="0" vertex="1" parent="orA6Bw7jzsO3zKe3uAtD-34">
          <mxGeometry x="-0.2617" y="-3" relative="1" as="geometry">
            <mxPoint x="-7" y="14" as="offset" />
          </mxGeometry>
        </mxCell>
        <mxCell id="orA6Bw7jzsO3zKe3uAtD-1" value="Inbox table" style="sketch=0;outlineConnect=0;fontColor=#232F3E;gradientColor=none;fillColor=#2E27AD;strokeColor=none;dashed=0;verticalLabelPosition=bottom;verticalAlign=top;align=center;html=1;fontSize=13;fontStyle=0;aspect=fixed;pointerEvents=1;shape=mxgraph.aws4.table;" vertex="1" parent="1">
          <mxGeometry x="280" y="380" width="78" height="78" as="geometry" />
        </mxCell>
        <mxCell id="orA6Bw7jzsO3zKe3uAtD-5" value="DynamoDB" style="sketch=0;points=[[0,0,0],[0.25,0,0],[0.5,0,0],[0.75,0,0],[1,0,0],[0,1,0],[0.25,1,0],[0.5,1,0],[0.75,1,0],[1,1,0],[0,0.25,0],[0,0.5,0],[0,0.75,0],[1,0.25,0],[1,0.5,0],[1,0.75,0]];outlineConnect=0;fontColor=#232F3E;gradientColor=#4D72F3;gradientDirection=north;fillColor=#3334B9;strokeColor=#ffffff;dashed=0;verticalLabelPosition=bottom;verticalAlign=top;align=center;html=1;fontSize=13;fontStyle=0;aspect=fixed;shape=mxgraph.aws4.resourceIcon;resIcon=mxgraph.aws4.dynamodb;" vertex="1" parent="1">
          <mxGeometry x="180" y="380" width="78" height="78" as="geometry" />
        </mxCell>
        <mxCell id="orA6Bw7jzsO3zKe3uAtD-12" value="&lt;span style=&quot;background-color: rgb(255, 255, 255); font-size: 13px;&quot;&gt;SQS&lt;br&gt;&lt;/span&gt;" style="sketch=0;points=[[0,0,0],[0.25,0,0],[0.5,0,0],[0.75,0,0],[1,0,0],[0,1,0],[0.25,1,0],[0.5,1,0],[0.75,1,0],[1,1,0],[0,0.25,0],[0,0.5,0],[0,0.75,0],[1,0.25,0],[1,0.5,0],[1,0.75,0]];outlineConnect=0;fontColor=#232F3E;gradientColor=#FF4F8B;gradientDirection=north;fillColor=#BC1356;strokeColor=#ffffff;dashed=0;verticalLabelPosition=bottom;verticalAlign=top;align=center;html=1;fontSize=13;fontStyle=0;aspect=fixed;shape=mxgraph.aws4.resourceIcon;resIcon=mxgraph.aws4.sqs;spacingBottom=0;spacingTop=7;" vertex="1" parent="1">
          <mxGeometry x="409.99" y="30" width="78" height="78" as="geometry" />
        </mxCell>
        <mxCell id="orA6Bw7jzsO3zKe3uAtD-32" style="edgeStyle=orthogonalEdgeStyle;rounded=0;orthogonalLoop=1;jettySize=auto;html=1;fontSize=13;" edge="1" parent="1" source="orA6Bw7jzsO3zKe3uAtD-28" target="orA6Bw7jzsO3zKe3uAtD-1">
          <mxGeometry relative="1" as="geometry" />
        </mxCell>
        <mxCell id="orA6Bw7jzsO3zKe3uAtD-33" value="2. Check if MessageId&lt;br style=&quot;font-size: 13px;&quot;&gt;already exists" style="edgeLabel;html=1;align=center;verticalAlign=middle;resizable=0;points=[];labelBackgroundColor=#FFFFFF;fontSize=13;" connectable="0" vertex="1" parent="orA6Bw7jzsO3zKe3uAtD-32">
          <mxGeometry x="0.1436" relative="1" as="geometry">
            <mxPoint y="35" as="offset" />
          </mxGeometry>
        </mxCell>
        <mxCell id="orA6Bw7jzsO3zKe3uAtD-37" style="edgeStyle=orthogonalEdgeStyle;rounded=0;orthogonalLoop=1;jettySize=auto;html=1;fontSize=13;" edge="1" parent="1" source="orA6Bw7jzsO3zKe3uAtD-28" target="orA6Bw7jzsO3zKe3uAtD-1">
          <mxGeometry relative="1" as="geometry">
            <Array as="points">
              <mxPoint x="590" y="245" />
              <mxPoint x="590" y="419" />
            </Array>
          </mxGeometry>
        </mxCell>
        <mxCell id="orA6Bw7jzsO3zKe3uAtD-38" value="4. Save processed&lt;br style=&quot;font-size: 13px;&quot;&gt;MessageId" style="edgeLabel;html=1;align=center;verticalAlign=middle;resizable=0;points=[];fontSize=13;" connectable="0" vertex="1" parent="orA6Bw7jzsO3zKe3uAtD-37">
          <mxGeometry x="-0.1539" relative="1" as="geometry">
            <mxPoint x="-98" y="59" as="offset" />
          </mxGeometry>
        </mxCell>
        <mxCell id="orA6Bw7jzsO3zKe3uAtD-28" value="&lt;span style=&quot;background-color: rgb(255, 255, 255); font-size: 13px;&quot;&gt;Microservice&lt;/span&gt;" style="outlineConnect=0;dashed=0;verticalLabelPosition=bottom;verticalAlign=top;align=center;html=1;shape=mxgraph.aws3.ec2_compute_container_2;fillColor=#F58534;gradientColor=none;spacingTop=6;fontSize=13;" vertex="1" parent="1">
          <mxGeometry x="405.51" y="220" width="86.96" height="50" as="geometry" />
        </mxCell>
      </root>
    </mxGraphModel>
  </diagram>
</mxfile>
